<svg width="395" height="359" viewBox="0 0 395 359" fill="none" xmlns="http://www.w3.org/2000/svg">
<path d="M151.877 354.391L-67.8284 224.399C-74.8231 220.461 -80.8185 214.01 -74.0032 209.777L146.484 82.5554C149.789 80.5032 154.811 79.1564 158.18 81.1188L388.775 215.126C395.769 219.192 397.025 230.517 390.056 234.621L180.829 354.186C171.894 359.376 160.885 359.454 151.877 354.391Z" fill="#5B36A0"/>
<path d="M151.877 348.391L-67.8284 218.399C-74.8231 214.461 -80.8185 208.01 -74.0032 203.777L146.484 76.5554C149.789 74.5032 154.811 73.1564 158.18 75.1188L388.775 209.126C395.769 213.192 397.025 224.517 390.056 228.621L180.829 348.186C171.894 353.376 160.885 353.454 151.877 348.391Z" fill="#6862E6"/>
<g style="mix-blend-mode:multiply" opacity="0.25">
<path d="M169.992 176.881L126.64 201.648C126.64 201.648 193.422 242.448 207.079 248.194L232.047 212.281" fill="url(#paint0_linear_49_9)"/>
</g>
<g style="mix-blend-mode:multiply" opacity="0.25">
<path d="M155.016 295.702L111.651 270.986L68.2865 295.753C68.2865 295.753 90.8719 309.554 112.458 322.226C126.166 312.517 139.886 302.705 155.016 295.702Z" fill="url(#paint1_linear_49_9)"/>
</g>
<g style="mix-blend-mode:multiply" opacity="0.46">
<path d="M61.5864 143.071L34.0816 158.783C34.0816 158.783 36.4132 173.187 50.0695 178.933L86.0807 155.846" fill="url(#paint2_linear_49_9)"/>
</g>
<ellipse cx="75.0506" cy="147.086" rx="16.59" ry="11.6974" fill="#68E1FD"/>
<ellipse cx="75.0378" cy="140.186" rx="12.4265" ry="5.09196" fill="#974C26"/>
<path fill-rule="evenodd" clip-rule="evenodd" d="M74.3332 124.807C74.5125 127.103 74.5894 129.399 74.5894 131.695C74.5766 134.568 74.4357 137.441 74.1282 140.301C73.1418 138.929 72.1682 137.492 71.1433 135.876C69.8238 133.811 68.5939 131.695 67.4666 129.527C66.4185 127.6 65.5232 125.592 64.7891 123.524C63.9728 121.278 63.3177 118.977 62.8291 116.637C62.701 116.073 62.5857 115.406 62.4832 114.79V114.572V114.033C62.3807 112.828 62.2782 111.545 62.2782 110.262C62.2213 105.9 63.063 101.573 64.7507 97.5517C69.2361 104.065 72.2604 111.472 73.6158 119.266C73.7012 119.728 73.7823 120.194 73.8592 120.664C73.8592 120.574 74.0385 121.511 74.0385 121.857L74.1666 123.024C74.2264 123.614 74.2819 124.209 74.3332 124.807ZM68.0689 105.875C68.0688 105.875 68.0688 105.876 68.0687 105.876H68.0559C68.0602 105.876 68.0645 105.875 68.0689 105.875ZM68.0689 105.875C68.3841 105.857 68.7001 105.892 69.0039 105.978C68.6964 105.636 68.3847 105.303 68.0687 104.978C68.1344 105.273 68.1345 105.58 68.0689 105.875Z" fill="#999A1C"/>
<path fill-rule="evenodd" clip-rule="evenodd" d="M82.3528 127.526C81.2638 129.617 80.1365 131.528 78.8554 133.465C77.3053 135.889 75.5887 138.223 73.8848 140.493C73.7695 138.813 73.7695 137.069 73.7695 135.158C73.7695 132.708 73.872 130.271 74.1026 127.834C74.2607 125.644 74.5905 123.47 75.089 121.331C75.6123 118.998 76.3016 116.704 77.1516 114.469C77.3822 113.879 77.6256 113.302 77.8689 112.725L77.869 112.725L77.933 112.52L78.1892 112.045C78.7657 110.929 79.3807 109.826 80.0468 108.762C82.3604 105.056 85.4133 101.868 89.0144 99.3986C89.2744 107.312 87.8191 115.189 84.7484 122.486C84.569 122.905 84.3854 123.332 84.1975 123.768L83.6979 124.871L83.1727 125.936C82.9079 126.466 82.6346 126.996 82.3528 127.526ZM87.7461 107.428C87.6598 107.717 87.5112 107.984 87.3105 108.21C87.5604 108.342 87.7893 108.511 87.9895 108.71C87.9212 108.3 87.8401 107.872 87.7461 107.428Z" fill="#999A1C"/>
<path fill-rule="evenodd" clip-rule="evenodd" d="M82.609 137.107C81.3364 137.851 80.0553 138.544 78.7657 139.185C77.1516 139.993 75.499 140.711 73.8464 141.404C74.3332 140.468 74.8841 139.506 75.499 138.48C76.3061 137.197 77.1516 135.914 78.0611 134.632C78.8516 133.5 79.7297 132.432 80.6873 131.438C81.7238 130.347 82.8369 129.331 84.0182 128.398L84.9662 127.693L85.0686 127.603L85.3633 127.424C86.0423 127.013 86.7212 126.616 87.4258 126.256C89.8628 125.002 92.5317 124.265 95.2661 124.089C92.8562 128.438 89.5348 132.214 85.5298 135.158L84.8124 135.684L84.1975 136.12L83.5698 136.517L82.609 137.107ZM91.9609 128.001C91.8215 128.13 91.6552 128.226 91.4741 128.283V128.296C91.5595 128.457 91.62 128.63 91.6534 128.809C91.7644 128.544 91.8669 128.274 91.9609 128.001Z" fill="#999A1C"/>
<path fill-rule="evenodd" clip-rule="evenodd" d="M74.3332 124.807C74.5125 127.103 74.5894 129.399 74.5894 131.695C74.5766 134.568 74.4357 137.441 74.1282 140.301C73.1418 138.929 72.1682 137.492 71.1433 135.876C69.8238 133.811 68.5939 131.695 67.4666 129.527C66.4185 127.6 65.5232 125.592 64.7891 123.524C63.9728 121.278 63.3177 118.977 62.8291 116.637C62.701 116.073 62.5857 115.406 62.4832 114.79V114.572V114.033C62.3807 112.828 62.2782 111.545 62.2782 110.262C62.2213 105.9 63.063 101.573 64.7507 97.5517C69.2361 104.065 72.2604 111.472 73.6158 119.266C73.7012 119.728 73.7823 120.194 73.8592 120.664C73.8592 120.574 74.0385 121.511 74.0385 121.857L74.1666 123.024C74.2264 123.614 74.2819 124.209 74.3332 124.807ZM68.0689 105.875C68.0688 105.875 68.0688 105.876 68.0687 105.876H68.0559C68.0602 105.876 68.0645 105.875 68.0689 105.875ZM68.0689 105.875C68.3841 105.857 68.7001 105.892 69.0039 105.978C68.6964 105.636 68.3847 105.303 68.0687 104.978C68.1344 105.273 68.1345 105.58 68.0689 105.875Z" fill="#999A1C"/>
<path fill-rule="evenodd" clip-rule="evenodd" d="M82.3528 127.526C81.2638 129.617 80.1365 131.528 78.8554 133.465C77.3053 135.889 75.5887 138.223 73.8848 140.493C73.7695 138.813 73.7695 137.069 73.7695 135.158C73.7695 132.708 73.872 130.271 74.1026 127.834C74.2607 125.644 74.5905 123.47 75.089 121.331C75.6123 118.998 76.3016 116.704 77.1516 114.469C77.3822 113.879 77.6256 113.302 77.8689 112.725L77.869 112.725L77.933 112.52L78.1892 112.045C78.7657 110.929 79.3807 109.826 80.0468 108.762C82.3604 105.056 85.4133 101.868 89.0144 99.3986C89.2744 107.312 87.8191 115.189 84.7484 122.486C84.569 122.905 84.3854 123.332 84.1975 123.768L83.6979 124.871L83.1727 125.936C82.9079 126.466 82.6346 126.996 82.3528 127.526ZM87.7461 107.428C87.6598 107.717 87.5112 107.984 87.3105 108.21C87.5604 108.342 87.7893 108.511 87.9895 108.71C87.9212 108.3 87.8401 107.872 87.7461 107.428Z" fill="#999A1C"/>
<path fill-rule="evenodd" clip-rule="evenodd" d="M82.609 137.107C81.3364 137.851 80.0553 138.544 78.7657 139.185C77.1516 139.993 75.499 140.711 73.8464 141.404C74.3332 140.468 74.8841 139.506 75.499 138.48C76.3061 137.197 77.1516 135.914 78.0611 134.632C78.8516 133.5 79.7297 132.432 80.6873 131.438C81.7238 130.347 82.8369 129.331 84.0182 128.398L84.9662 127.693L85.0686 127.603L85.3633 127.424C86.0423 127.013 86.7212 126.616 87.4258 126.256C89.8628 125.002 92.5317 124.265 95.2661 124.089C92.8562 128.438 89.5348 132.214 85.5298 135.158L84.8124 135.684L84.1975 136.12L83.5698 136.517L82.609 137.107ZM91.9609 128.001C91.8215 128.13 91.6552 128.226 91.4741 128.283V128.296C91.5595 128.457 91.62 128.63 91.6534 128.809C91.7644 128.544 91.8669 128.274 91.9609 128.001Z" fill="#999A1C"/>
<path d="M187.209 167.21L163.215 178.754C161.372 179.64 160.17 181.473 160.09 183.518C160.009 185.563 161.063 187.485 162.83 188.514L219.697 221.734C222.251 223.228 225.528 222.442 227.128 219.951L240.951 198.429" fill="#A1482D"/>
<path d="M317.713 111.532L126.384 1.15079C123.712 -0.387234 120.425 -0.383345 117.757 1.16099C115.089 2.70533 113.446 5.55602 113.445 8.64123V123.473C113.444 126.039 114.812 128.411 117.032 129.694L321.005 247.578C322.437 248.409 324.204 248.411 325.637 247.582C327.07 246.753 327.952 245.221 327.949 243.564V129.206C327.943 121.905 324.039 115.164 317.713 111.532Z" fill="#F47B56"/>
<path d="M126.396 9.83404L311.948 116.714C315.981 119.039 318.467 123.342 318.469 128.001V214.077C318.466 215.753 317.572 217.301 316.124 218.141C314.675 218.981 312.889 218.987 311.436 218.155L122.207 109.493C120.765 108.665 119.876 107.129 119.876 105.465V13.6177C119.876 12.0624 120.703 10.6249 122.047 9.84505C123.391 9.06516 125.048 9.06097 126.396 9.83404Z" fill="white"/>
<ellipse cx="203.597" cy="167.654" rx="4.03558" ry="4.61719" transform="rotate(-10.9 203.597 167.654)" fill="#AB643C"/>
<path opacity="0.32" d="M176.269 126.616L262.498 178.484L305.094 153.691L228.985 109.339" fill="url(#paint3_linear_49_9)"/>
<path d="M282.829 116.291L189.605 59.3812C188.589 58.7928 187.333 58.8031 186.327 59.4083C185.32 60.0135 184.721 61.118 184.762 62.2928V94.7171C184.754 95.9102 185.372 97.0201 186.389 97.6415L279.601 153.345C280.598 153.912 281.821 153.905 282.811 153.326C283.801 152.747 284.408 151.684 284.405 150.536L284.892 120.305C284.964 118.695 284.179 117.168 282.829 116.291Z" fill="#E2AC00"/>
<path d="M260.526 132.977C263.869 137.659 269.749 138.967 273.644 135.914C277.538 132.862 277.987 126.59 274.643 121.921C271.299 117.253 265.419 115.931 261.525 118.984C257.63 122.037 257.182 128.296 260.526 132.977Z" fill="white"/>
<path d="M251.379 110.506L213.356 87.5858C212.679 87.2686 211.873 87.5191 211.494 88.1641C211.116 88.8091 211.29 89.6366 211.896 90.0741L249.918 112.994C250.595 113.311 251.402 113.061 251.78 112.416C252.159 111.771 251.985 110.944 251.379 110.506V110.506Z" fill="#F2F2F2"/>
<path d="M249.816 119.818L197.407 88.2271C196.744 87.9952 196.011 88.2726 195.667 88.8853C195.323 89.498 195.468 90.2694 196.01 90.7154L248.355 122.319C249.032 122.636 249.839 122.386 250.217 121.741C250.596 121.096 250.422 120.268 249.816 119.831V119.818Z" fill="#F2F2F2"/>
<path d="M264.228 122.575L171.055 65.6788C170.038 65.0904 168.783 65.1008 167.777 65.7059C166.77 66.3111 166.171 67.4156 166.212 68.5904V101.002C166.197 102.197 166.81 103.312 167.826 103.939L261.038 159.643C262.046 160.223 263.288 160.213 264.286 159.617C265.285 159.022 265.884 157.933 265.855 156.77L266.342 126.539C266.385 124.937 265.582 123.43 264.228 122.575V122.575Z" fill="#F47B56"/>
<path d="M241.924 139.262C245.268 143.944 251.148 145.252 255.042 142.199C258.937 139.147 259.385 132.875 256.042 128.206C252.698 123.537 246.818 122.216 242.923 125.269C239.029 128.321 238.581 134.581 241.924 139.262Z" fill="white"/>
<path d="M232.777 116.791L194.729 93.8706C194.052 93.5534 193.246 93.8039 192.867 94.4489C192.489 95.0939 192.663 95.9214 193.269 96.3588L231.291 119.279C231.968 119.596 232.775 119.346 233.153 118.701C233.532 118.056 233.358 117.228 232.752 116.791H232.777Z" fill="#F2F2F2"/>
<path d="M231.202 126.167L178.805 94.5247C178.129 94.2075 177.322 94.458 176.943 95.103C176.565 95.748 176.739 96.5755 177.345 97.013L229.754 128.604C230.431 128.921 231.237 128.67 231.616 128.025C231.994 127.38 231.82 126.553 231.214 126.115L231.202 126.167Z" fill="#F2F2F2"/>
<path d="M240.848 126.398L147.649 69.501C146.633 68.9126 145.378 68.9229 144.371 69.5281C143.365 70.1333 142.766 71.2378 142.807 72.4125V104.824C142.799 106.017 143.417 107.127 144.434 107.748L237.645 163.452C238.653 164.032 239.895 164.022 240.894 163.427C241.892 162.831 242.492 161.742 242.462 160.579L242.949 130.348C242.991 128.753 242.193 127.253 240.848 126.398V126.398Z" fill="#68E1FD"/>
<path d="M240.848 126.398L147.649 69.501C146.633 68.9126 145.378 68.9229 144.371 69.5281C143.365 70.1333 142.766 71.2378 142.807 72.4125V104.824C142.799 106.017 143.417 107.127 144.434 107.748L237.645 163.452C238.653 164.032 239.895 164.022 240.894 163.427C241.892 162.831 242.492 161.742 242.462 160.579L242.949 130.348C242.991 128.753 242.193 127.253 240.848 126.398V126.398Z" fill="#68E1FD"/>
<path d="M218.532 143.084C221.875 147.766 227.755 149.074 231.65 146.021C235.544 142.969 235.993 136.697 232.649 132.028C229.306 127.359 223.425 126.038 219.531 129.091C215.636 132.144 215.226 138.403 218.532 143.084Z" fill="white"/>
<path d="M209.385 120.613L171.349 97.6928C170.673 97.3755 169.866 97.6261 169.488 98.2711C169.109 98.9161 169.283 99.7435 169.889 100.181L207.912 123.101C208.588 123.418 209.395 123.168 209.773 122.523C210.152 121.878 209.978 121.05 209.372 120.613H209.385Z" fill="#F2F2F2"/>
<path d="M207.809 129.938L155.4 98.3469C154.723 98.0296 153.917 98.2802 153.538 98.9252C153.159 99.5702 153.333 100.398 153.94 100.835L206.349 132.426C207.025 132.743 207.832 132.492 208.211 131.847C208.589 131.202 208.415 130.375 207.809 129.938V129.938Z" fill="#F2F2F2"/>
<path d="M118.53 123.217C112.508 128.407 107.953 135.09 105.323 142.597C100.685 155.423 112.279 176.381 112.279 176.381L130.316 162.08" fill="#FF8F6F"/>
<path d="M116.583 292.79L111.69 290.084L112.971 283.081C112.971 283.081 120.26 283.774 120.9 286.364" fill="#003B94"/>
<path d="M118.377 292.688C119.478 292.008 120.631 291.405 121.772 290.802C124.603 289.25 128.689 287.647 130.432 284.736C131.163 283.53 131.071 281.997 130.201 280.888C127.639 277.784 122.028 282.889 119.158 279.451C118.595 278.771 118.326 267.985 118.326 267.985L107.411 270.935C107.411 270.935 105.566 292.611 105.771 293.945C105.976 295.279 109.729 296.51 109.729 296.51C110.847 296.272 111.914 295.838 112.881 295.227C114.021 294.394 112.983 284.223 114.444 285.646C115.904 287.07 116.545 292.636 116.545 292.636C117.151 292.728 117.766 292.746 118.377 292.688Z" fill="#F47B56"/>
<path d="M137.426 303.269L132.533 300.601L133.814 293.598C133.814 293.598 141.103 294.291 141.744 296.882" fill="#003B94"/>
<path d="M139.271 303.167C140.373 302.487 141.526 301.884 142.666 301.281C145.497 299.729 149.584 298.126 151.326 295.214C152.057 294.009 151.965 292.476 151.096 291.367C148.533 288.263 142.922 293.368 140.053 289.93C139.489 289.25 139.22 278.464 139.22 278.464L128.305 281.414C128.305 281.414 126.448 303.167 126.653 304.449C126.858 305.732 130.611 307.014 130.611 307.014C131.729 306.777 132.796 306.342 133.763 305.732C134.903 304.898 133.865 294.727 135.325 296.151C136.786 297.574 137.426 303.141 137.426 303.141C138.038 303.225 138.658 303.234 139.271 303.167Z" fill="#F47B56"/>
<path d="M101.864 232.803L98.6481 275.86C98.6481 275.86 103.772 282.94 120.952 279.002V279.002L121.118 249.977" fill="#3E2928"/>
<path d="M121.708 241.332C121.336 245.039 121.708 285.928 121.708 285.928C121.708 285.928 126.46 294.83 147.15 285.928L146.855 251.183" fill="#3E2928"/>
<path d="M100.262 247.027C101.671 248.002 102.158 242.987 103.632 243.846C108.991 246.963 114.68 249.475 120.593 251.336H120.721C121.006 251.198 121.334 251.181 121.631 251.29C121.929 251.399 122.169 251.624 122.297 251.914C125.95 253.005 129.668 253.862 133.429 254.479C138.259 255.248 142.256 251.67 147.214 251.426C147.214 232.418 147.304 178.318 139.22 166.774L115.302 158.719C115.187 160.694 103.696 174.034 103.977 190.297C104.298 208.626 101.915 225.915 101.505 231.648C101.441 232.623 100.314 245.988 100.262 247.027Z" fill="#3E2928"/>
<path d="M141.423 144.918L139.22 166.723C139.22 166.723 121.374 167.441 113.688 162.131V143.636" fill="#FF8F6F"/>
<path d="M164.111 130.566L162.292 133.054C163.262 131.03 164.118 128.954 164.854 126.834C165.367 125.384 163.048 124.807 162.536 126.256L162.267 127C162.489 126.231 162.698 125.457 162.894 124.679C163.054 124.038 162.663 123.389 162.023 123.229C161.383 123.07 160.735 123.461 160.576 124.102C160.073 126.114 159.47 128.101 158.769 130.053C159.161 128.32 159.443 126.563 159.615 124.794C159.768 123.268 157.373 123.332 157.232 124.794C157.033 126.808 156.673 128.802 156.156 130.758C156.156 130.074 156.092 129.39 155.964 128.706C155.928 128.361 155.746 128.048 155.464 127.847C155.4 127.578 155.323 127.321 155.233 127.052C155.046 126.498 154.488 126.158 153.911 126.247C153.333 126.335 152.903 126.826 152.889 127.411L152.735 136.389C152.301 137.32 151.736 138.184 151.057 138.954C152.21 139.753 153.322 140.609 154.388 141.519C155.339 142.325 156.246 143.181 157.104 144.085C157.872 143.127 158.611 142.152 159.32 141.16C159.408 141.086 159.486 140.999 159.551 140.904C161.686 137.74 163.889 134.628 166.161 131.566C167.109 130.515 165.021 129.348 164.111 130.566Z" fill="#FFB5A9"/>
<path d="M130.099 125.038C130.099 125.038 138.528 127.308 141.949 132.734C144.091 136.489 145.978 140.384 147.598 144.393L153.824 134.709C153.824 134.709 161.383 137.03 164.38 140.75C164.38 140.75 155.413 160.374 147.598 162.054C139.784 163.734 131.482 150.536 131.482 150.536C131.482 150.536 129.766 156.051 130.099 150.164" fill="#FF8F6F"/>
<path d="M135.454 146.009C133.003 144.013 131.154 141.375 130.111 138.39C129.099 134.94 130.368 131.913 131.546 128.706C132.822 125.528 133.567 122.161 133.75 118.74C133.852 115.38 133.468 112.019 133.237 108.672C133.204 108.528 133.204 108.379 133.237 108.236C132.11 104.452 129.804 101.246 125.256 100.861C113.483 99.8604 112.817 112.917 112.907 118.227C112.996 123.537 113.56 127.129 109.653 129.348C105.745 131.566 102.927 137.389 106.655 142.097C110.383 146.804 107.039 145.085 104.554 149.266C102.069 153.448 102.709 158.668 107.808 160.553C112.907 162.439 136.607 158.899 138.784 156.706C139.557 155.822 139.957 154.672 139.899 153.499C139.367 150.547 137.789 147.887 135.454 146.009V146.009Z" fill="#007F68"/>
<path fill-rule="evenodd" clip-rule="evenodd" d="M150.365 48.0686C150.184 44.5721 149.03 41.1959 147.035 38.3208C145.259 35.4476 142.636 33.1976 139.527 31.8821C137.935 31.171 136.136 31.0795 134.48 31.6256C132.9 32.1855 131.597 33.3341 130.842 34.8321C129.932 36.6177 129.525 38.6172 129.663 40.6167C129.774 42.9951 130.33 45.3315 131.303 47.5043C132.274 49.7793 133.616 51.8771 135.274 53.7121C136.673 55.3436 138.426 56.6334 140.399 57.483C141.093 57.7605 141.821 57.9459 142.564 58.0345C143.129 58.1105 143.702 58.1105 144.267 58.0345C144.709 57.9733 145.14 57.8525 145.548 57.6754C145.808 57.573 146.061 57.453 146.304 57.3162L146.561 57.1367L145.01 54.2508L144.498 54.533C143.977 54.7737 143.405 54.8796 142.833 54.8408C141.953 54.8501 141.082 54.6799 140.27 54.3406C137.939 53.2704 136.019 51.4695 134.8 49.2101C133.27 46.9227 132.384 44.2639 132.238 41.5145C131.991 39.3282 132.75 37.1482 134.301 35.5888C135.77 34.2892 137.882 34.0197 139.63 34.9091C141.983 35.8882 143.969 37.5845 145.305 39.7573C146.792 41.8929 147.649 44.4041 147.778 47.0041C147.872 49.6291 147.299 50.698 146.061 50.2106C145.62 50.0194 145.251 49.6911 145.01 49.2743C144.726 48.8428 144.567 48.3413 144.549 47.8249L144.293 40.6167L141.731 39.6162V40.7578L141.5 40.3473C141.237 39.9718 140.927 39.6313 140.578 39.3341C140.168 38.9621 139.695 38.6667 139.182 38.4619C138.145 37.9515 136.9 38.1464 136.068 38.9493C135.123 39.9929 134.687 41.4013 134.877 42.7971C134.931 44.5211 135.444 46.1992 136.363 47.6582C137.126 49.0009 138.304 50.0588 139.72 50.6723C140.313 50.9414 140.975 51.0219 141.616 50.9032C141.999 50.8469 142.36 50.6922 142.666 50.4543C142.786 50.3224 142.89 50.1759 142.974 50.0182L143.281 50.621C143.577 51.1394 143.948 51.6106 144.383 52.0191C144.867 52.5216 145.452 52.9151 146.099 53.1734C147.16 53.7387 148.468 53.5116 149.276 52.6219C150.2 51.2958 150.588 49.6695 150.365 48.0686ZM141.91 45.5419C141.994 46.2194 141.805 46.9026 141.385 47.4401C140.992 47.8307 140.392 47.9239 139.899 47.671C139.212 47.3734 138.641 46.8601 138.272 46.2088C137.823 45.492 137.571 44.669 137.542 43.8232C137.452 43.1508 137.658 42.4727 138.105 41.9634C138.537 41.5733 139.164 41.4916 139.681 41.7582C140.339 42.0445 140.884 42.5406 141.231 43.1691C141.656 43.889 141.89 44.7059 141.91 45.5419Z" fill="#F47B56"/>
<path fill-rule="evenodd" clip-rule="evenodd" d="M301.623 186.949C301.444 183.452 300.291 180.075 298.292 177.202C296.58 174.296 294.011 171.993 290.938 170.609C289.341 169.903 287.539 169.812 285.878 170.353C284.299 170.92 282.997 172.072 282.24 173.572C281.33 175.353 280.922 177.348 281.061 179.344C281.171 181.722 281.728 184.059 282.701 186.231C283.672 188.51 285.014 190.612 286.672 192.452C288.073 194.079 289.825 195.364 291.797 196.21C292.487 196.491 293.21 196.681 293.949 196.774C294.519 196.85 295.096 196.85 295.666 196.774C296.105 196.706 296.535 196.585 296.947 196.415C297.206 196.313 297.459 196.193 297.702 196.056L297.959 195.876L296.409 192.991L295.896 193.273C295.374 193.508 294.803 193.614 294.231 193.581C293.351 193.58 292.481 193.406 291.669 193.068C289.341 192.049 287.401 190.309 286.134 188.104C284.601 185.818 283.716 183.158 283.572 180.408C283.3 178.217 284.041 176.022 285.583 174.444C287.057 173.152 289.167 172.888 290.913 173.777C293.259 174.757 295.239 176.448 296.575 178.613C298.061 180.753 298.918 183.268 299.048 185.872C299.124 188.501 298.599 189.566 297.318 189.079C296.877 188.887 296.508 188.559 296.268 188.142C295.988 187.709 295.829 187.208 295.806 186.693L295.55 179.485L292.988 178.497V179.639L292.745 179.228C292.481 178.849 292.171 178.504 291.822 178.202C291.413 177.829 290.94 177.534 290.426 177.33C289.393 176.822 288.153 177.017 287.326 177.817C286.374 178.857 285.937 180.269 286.134 181.665C286.188 183.395 286.706 185.078 287.633 186.539C288.394 187.887 289.572 188.949 290.99 189.566C291.579 189.835 292.238 189.912 292.873 189.784C293.257 189.731 293.619 189.576 293.923 189.335C294.041 189.201 294.144 189.055 294.231 188.899L294.538 189.502C294.836 190.018 295.208 190.489 295.64 190.9C296.126 191.399 296.711 191.792 297.357 192.054C298.418 192.615 299.723 192.388 300.534 191.503C301.457 190.177 301.846 188.55 301.623 186.949ZM293.18 184.423C293.261 185.102 293.067 185.785 292.642 186.321C292.246 186.707 291.647 186.795 291.156 186.539C290.469 186.236 289.898 185.719 289.529 185.064C289.08 184.352 288.828 183.533 288.799 182.691C288.71 182.017 288.92 181.337 289.375 180.831C289.81 180.446 290.437 180.369 290.951 180.639C291.606 180.924 292.148 181.421 292.488 182.05C292.919 182.768 293.158 183.585 293.18 184.423Z" fill="#F47B56"/>
<g style="mix-blend-mode:multiply" opacity="0.25">
<path d="M42.9979 231.892L-0.366657 207.189L-43.7184 231.943C-43.7184 231.943 -19.5957 247.027 1.99053 259.699C15.6981 250.003 27.8812 238.908 42.9979 231.892Z" fill="url(#paint4_linear_49_9)"/>
</g>
<defs>
<linearGradient id="paint0_linear_49_9" x1="169.574" y1="184.731" x2="158.544" y2="217.429" gradientUnits="userSpaceOnUse">
<stop stop-color="#78B46A"/>
<stop offset="0.03" stop-color="#7F3500"/>
<stop offset="1" stop-color="white"/>
</linearGradient>
<linearGradient id="paint1_linear_49_9" x1="97.3953" y1="251.665" x2="78.8396" y2="310.026" gradientUnits="userSpaceOnUse">
<stop stop-color="#78B46A"/>
<stop offset="0.03" stop-color="#7F3500"/>
<stop offset="1" stop-color="white"/>
</linearGradient>
<linearGradient id="paint2_linear_49_9" x1="51.559" y1="129.19" x2="34.3951" y2="168.814" gradientUnits="userSpaceOnUse">
<stop stop-color="#78B46A"/>
<stop offset="0.03" stop-color="#7F3500"/>
<stop offset="1" stop-color="white"/>
</linearGradient>
<linearGradient id="paint3_linear_49_9" x1="292.515" y1="164.64" x2="285.81" y2="147.647" gradientUnits="userSpaceOnUse">
<stop stop-color="white" stop-opacity="0.01"/>
<stop offset="0.99" stop-color="#DC841E"/>
</linearGradient>
<linearGradient id="paint4_linear_49_9" x1="-13.5861" y1="187.538" x2="-33.1082" y2="245.989" gradientUnits="userSpaceOnUse">
<stop stop-color="#78B46A"/>
<stop offset="0.03" stop-color="#7F3500"/>
<stop offset="1" stop-color="white"/>
</linearGradient>
</defs>
</svg>
