<svg width="388" height="361" viewBox="0 0 388 361" fill="none" xmlns="http://www.w3.org/2000/svg">
<g filter="url(#filter0_d_0_215)">
<rect y="-70" width="920" height="509" rx="23" fill="white"/>
</g>
<mask id="mask0_0_215" style="mask-type:alpha" maskUnits="userSpaceOnUse" x="0" y="-70" width="920" height="509">
<rect y="-70" width="920" height="509" rx="23" fill="white"/>
</mask>
<g mask="url(#mask0_0_215)">
<path d="M145.018 355.203L-74.6873 225.211C-81.682 221.273 -87.6775 214.822 -80.8621 210.589L139.625 83.3669C142.93 81.3148 147.952 79.968 151.321 81.9304L381.916 215.937C388.91 220.003 390.166 231.329 383.197 235.433L173.971 354.998C165.035 360.187 154.026 360.265 145.018 355.203Z" fill="#5B36A0"/>
<path d="M145.018 349.203L-74.6873 219.211C-81.682 215.273 -87.6775 208.822 -80.8621 204.589L139.625 77.3669C142.93 75.3148 147.952 73.968 151.321 75.9304L381.916 209.937C388.91 214.003 390.166 225.329 383.197 229.433L173.971 348.998C165.035 354.187 154.026 354.265 145.018 349.203Z" fill="#6862E6"/>
<g style="mix-blend-mode:multiply" opacity="0.25">
<path d="M163.133 177.693L119.781 202.46C119.781 202.46 186.564 243.26 200.22 249.006L225.188 213.093" fill="url(#paint0_linear_0_215)"/>
</g>
<g style="mix-blend-mode:multiply" opacity="0.25">
<path d="M148.157 296.513L104.792 271.798L61.4276 296.565C61.4276 296.565 84.013 310.366 105.599 323.038C119.307 313.328 133.027 303.517 148.157 296.513Z" fill="url(#paint1_linear_0_215)"/>
</g>
<g style="mix-blend-mode:multiply" opacity="0.46">
<path d="M54.7275 143.883L27.2227 159.595C27.2227 159.595 29.5543 173.999 43.2106 179.745L79.2218 156.658" fill="url(#paint2_linear_0_215)"/>
</g>
<ellipse cx="68.1917" cy="147.898" rx="16.59" ry="11.6974" fill="#68E1FD"/>
<ellipse cx="68.1789" cy="140.997" rx="12.4265" ry="5.09196" fill="#974C26"/>
<path fill-rule="evenodd" clip-rule="evenodd" d="M67.4743 125.619C67.6536 127.915 67.7305 130.21 67.7305 132.506C67.7177 135.379 67.5768 138.252 67.2693 141.113C66.2829 139.74 65.3092 138.304 64.2844 136.688C62.9649 134.623 61.735 132.506 60.6077 130.339C59.5596 128.411 58.6643 126.404 57.9302 124.336C57.1138 122.09 56.4588 119.788 55.9702 117.448C55.8421 116.884 55.7268 116.217 55.6243 115.602V115.383V114.845C55.5218 113.639 55.4193 112.357 55.4193 111.074C55.3624 106.712 56.2041 102.385 57.8918 98.3633C62.3772 104.876 65.4014 112.284 66.7569 120.078C66.8423 120.54 66.9234 121.006 67.0003 121.476C67.0003 121.386 67.1796 122.322 67.1796 122.669L67.3077 123.836C67.3675 124.426 67.423 125.02 67.4743 125.619ZM61.21 106.687C61.2099 106.687 61.2098 106.687 61.2098 106.687H61.197C61.2013 106.687 61.2056 106.687 61.21 106.687ZM61.21 106.687C61.5252 106.669 61.8412 106.704 62.145 106.79C61.8375 106.448 61.5258 106.114 61.2098 105.79C61.2755 106.085 61.2756 106.391 61.21 106.687Z" fill="#999A1C"/>
<path fill-rule="evenodd" clip-rule="evenodd" d="M75.4938 128.338C74.4049 130.428 73.2776 132.34 71.9965 134.276C70.4464 136.7 68.7297 139.035 67.0259 141.305C66.9106 139.625 66.9106 137.88 66.9106 135.969C66.9106 133.52 67.0131 131.083 67.2437 128.646C67.4018 126.456 67.7316 124.281 68.2301 122.143C68.7534 119.809 69.4427 117.516 70.2927 115.281C70.5232 114.691 70.7666 114.114 71.01 113.537L71.0101 113.537L71.0741 113.331L71.3303 112.857C71.9068 111.741 72.5217 110.638 73.1879 109.573C75.5015 105.868 78.5544 102.68 82.1555 100.21C82.4155 108.124 80.9601 116 77.8895 123.297C77.7101 123.716 77.5265 124.144 77.3386 124.58L76.839 125.683L76.3137 126.747C76.049 127.278 75.7757 127.808 75.4938 128.338ZM80.8872 108.239C80.8009 108.529 80.6522 108.796 80.4516 109.022C80.7015 109.154 80.9304 109.322 81.1306 109.522C81.0623 109.112 80.9811 108.684 80.8872 108.239Z" fill="#999A1C"/>
<path fill-rule="evenodd" clip-rule="evenodd" d="M75.7501 137.919C74.4775 138.663 73.1964 139.355 71.9068 139.997C70.2926 140.805 68.6401 141.523 66.9875 142.216C67.4743 141.279 68.0251 140.317 68.6401 139.291C69.4471 138.009 70.2926 136.726 71.2022 135.443C71.9927 134.312 72.8708 133.244 73.8284 132.25C74.8648 131.158 75.978 130.142 77.1592 129.21L78.1072 128.505L78.2097 128.415L78.5044 128.235C79.1833 127.825 79.8623 127.427 80.5669 127.068C83.0039 125.814 85.6728 125.076 88.4071 124.9C85.9972 129.25 82.6758 133.026 78.6709 135.969L77.9535 136.495L77.3386 136.931L76.7109 137.329L75.7501 137.919ZM85.1019 128.812C84.9626 128.941 84.7963 129.038 84.6151 129.095V129.107C84.7006 129.268 84.7611 129.441 84.7945 129.62C84.9055 129.355 85.008 129.086 85.1019 128.812Z" fill="#999A1C"/>
<path fill-rule="evenodd" clip-rule="evenodd" d="M67.4743 125.619C67.6536 127.915 67.7305 130.21 67.7305 132.506C67.7177 135.379 67.5768 138.252 67.2693 141.113C66.2829 139.74 65.3092 138.304 64.2844 136.688C62.9649 134.623 61.735 132.506 60.6077 130.339C59.5596 128.411 58.6643 126.404 57.9302 124.336C57.1138 122.09 56.4588 119.788 55.9702 117.448C55.8421 116.884 55.7268 116.217 55.6243 115.602V115.383V114.845C55.5218 113.639 55.4193 112.357 55.4193 111.074C55.3624 106.712 56.2041 102.385 57.8918 98.3633C62.3772 104.876 65.4014 112.284 66.7569 120.078C66.8423 120.54 66.9234 121.006 67.0003 121.476C67.0003 121.386 67.1796 122.322 67.1796 122.669L67.3077 123.836C67.3675 124.426 67.423 125.02 67.4743 125.619ZM61.21 106.687C61.2099 106.687 61.2098 106.687 61.2098 106.687H61.197C61.2013 106.687 61.2056 106.687 61.21 106.687ZM61.21 106.687C61.5252 106.669 61.8412 106.704 62.145 106.79C61.8375 106.448 61.5258 106.114 61.2098 105.79C61.2755 106.085 61.2756 106.391 61.21 106.687Z" fill="#999A1C"/>
<path fill-rule="evenodd" clip-rule="evenodd" d="M75.4938 128.338C74.4049 130.428 73.2776 132.34 71.9965 134.276C70.4464 136.7 68.7297 139.035 67.0259 141.305C66.9106 139.625 66.9106 137.88 66.9106 135.969C66.9106 133.52 67.0131 131.083 67.2437 128.646C67.4018 126.456 67.7316 124.281 68.2301 122.143C68.7534 119.809 69.4427 117.516 70.2927 115.281C70.5232 114.691 70.7666 114.114 71.01 113.537L71.0101 113.537L71.0741 113.331L71.3303 112.857C71.9068 111.741 72.5217 110.638 73.1879 109.573C75.5015 105.868 78.5544 102.68 82.1555 100.21C82.4155 108.124 80.9601 116 77.8895 123.297C77.7101 123.716 77.5265 124.144 77.3386 124.58L76.839 125.683L76.3137 126.747C76.049 127.278 75.7757 127.808 75.4938 128.338ZM80.8872 108.239C80.8009 108.529 80.6522 108.796 80.4516 109.022C80.7015 109.154 80.9304 109.322 81.1306 109.522C81.0623 109.112 80.9811 108.684 80.8872 108.239Z" fill="#999A1C"/>
<path fill-rule="evenodd" clip-rule="evenodd" d="M75.7501 137.919C74.4775 138.663 73.1964 139.355 71.9068 139.997C70.2926 140.805 68.6401 141.523 66.9875 142.216C67.4743 141.279 68.0251 140.317 68.6401 139.291C69.4471 138.009 70.2926 136.726 71.2022 135.443C71.9927 134.312 72.8708 133.244 73.8284 132.25C74.8648 131.158 75.978 130.142 77.1592 129.21L78.1072 128.505L78.2097 128.415L78.5044 128.235C79.1833 127.825 79.8623 127.427 80.5669 127.068C83.0039 125.814 85.6728 125.076 88.4071 124.9C85.9972 129.25 82.6758 133.026 78.6709 135.969L77.9535 136.495L77.3386 136.931L76.7109 137.329L75.7501 137.919ZM85.1019 128.812C84.9626 128.941 84.7963 129.038 84.6151 129.095V129.107C84.7006 129.268 84.7611 129.441 84.7945 129.62C84.9055 129.355 85.008 129.086 85.1019 128.812Z" fill="#999A1C"/>
<path d="M180.35 168.022L156.356 179.565C154.513 180.452 153.311 182.285 153.231 184.33C153.15 186.375 154.205 188.297 155.971 189.326L212.839 222.545C215.392 224.04 218.669 223.254 220.269 220.763L234.092 199.24" fill="#A1482D"/>
<path d="M310.854 112.344L119.525 1.96239C116.853 0.424366 113.566 0.428254 110.898 1.97259C108.23 3.51693 106.587 6.36762 106.586 9.45283V124.285C106.586 126.851 107.953 129.222 110.173 130.505L314.146 248.39C315.578 249.221 317.345 249.222 318.778 248.393C320.211 247.565 321.093 246.032 321.09 244.375V130.018C321.084 122.717 317.18 115.976 310.854 112.344Z" fill="#F47B56"/>
<path d="M119.537 10.6457L305.089 117.525C309.122 119.85 311.608 124.154 311.61 128.812V214.888C311.607 216.564 310.714 218.112 309.265 218.953C307.816 219.793 306.031 219.798 304.577 218.967L115.348 110.304C113.907 109.477 113.017 107.941 113.017 106.277V14.4294C113.017 12.8741 113.844 11.4365 115.188 10.6567C116.532 9.87678 118.189 9.87258 119.537 10.6457Z" fill="white"/>
<ellipse cx="196.738" cy="168.465" rx="4.03558" ry="4.61719" transform="rotate(-10.9 196.738 168.465)" fill="#AB643C"/>
<path opacity="0.32" d="M169.41 127.427L255.639 179.296L298.235 154.503L222.126 110.15" fill="url(#paint3_linear_0_215)"/>
<path d="M275.97 117.102L182.746 60.1928C181.73 59.6044 180.474 59.6147 179.468 60.2199C178.461 60.8251 177.862 61.9296 177.903 63.1043V95.5287C177.896 96.7218 178.513 97.8317 179.53 98.453L272.742 154.157C273.739 154.724 274.962 154.717 275.952 154.138C276.942 153.559 277.549 152.496 277.546 151.348L278.033 121.117C278.106 119.507 277.321 117.979 275.97 117.102Z" fill="#E2AC00"/>
<path d="M253.667 133.789C257.01 138.47 262.89 139.779 266.785 136.726C270.679 133.673 271.128 127.402 267.784 122.733C264.44 118.064 258.56 116.743 254.666 119.796C250.771 122.848 250.323 129.107 253.667 133.789Z" fill="white"/>
<path d="M244.52 111.318L206.497 88.3974C205.82 88.0802 205.014 88.3307 204.635 88.9757C204.257 89.6207 204.431 90.4482 205.037 90.8857L243.059 113.806C243.736 114.123 244.543 113.873 244.921 113.228C245.3 112.583 245.126 111.755 244.52 111.318V111.318Z" fill="#F2F2F2"/>
<path d="M242.957 120.629L190.548 89.0387C189.885 88.8068 189.152 89.0842 188.808 89.6969C188.464 90.3096 188.609 91.081 189.151 91.527L241.496 123.13C242.173 123.448 242.98 123.197 243.358 122.552C243.737 121.907 243.563 121.08 242.957 120.642V120.629Z" fill="#F2F2F2"/>
<path d="M257.369 123.387L164.196 66.4904C163.18 65.902 161.924 65.9123 160.918 66.5175C159.911 67.1227 159.312 68.2272 159.353 69.4019V101.813C159.338 103.009 159.951 104.124 160.968 104.751L254.179 160.454C255.187 161.034 256.429 161.025 257.427 160.429C258.426 159.833 259.025 158.745 258.996 157.581L259.483 127.35C259.526 125.748 258.723 124.242 257.369 123.387V123.387Z" fill="#F47B56"/>
<path d="M235.065 140.074C238.409 144.755 244.289 146.063 248.184 143.011C252.078 139.958 252.526 133.686 249.183 129.018C245.839 124.349 239.959 123.028 236.065 126.08C232.17 129.133 231.722 135.392 235.065 140.074Z" fill="white"/>
<path d="M225.918 117.602L187.87 94.6822C187.194 94.3649 186.387 94.6155 186.008 95.2605C185.63 95.9055 185.804 96.7329 186.41 97.1704L224.432 120.091C225.109 120.408 225.916 120.157 226.294 119.512C226.673 118.867 226.499 118.04 225.893 117.602H225.918Z" fill="#F2F2F2"/>
<path d="M224.343 126.978L171.946 95.3363C171.27 95.0191 170.463 95.2696 170.084 95.9146C169.706 96.5596 169.88 97.3871 170.486 97.8246L222.895 129.415C223.572 129.732 224.378 129.482 224.757 128.837C225.136 128.192 224.962 127.364 224.355 126.927L224.343 126.978Z" fill="#F2F2F2"/>
<path d="M233.989 127.209L140.791 70.3126C139.774 69.7241 138.519 69.7345 137.512 70.3397C136.506 70.9448 135.907 72.0494 135.948 73.2241V105.636C135.94 106.829 136.558 107.939 137.575 108.56L230.786 164.264C231.794 164.844 233.036 164.834 234.035 164.238C235.033 163.643 235.633 162.554 235.603 161.391L236.09 131.16C236.132 129.565 235.334 128.065 233.989 127.209V127.209Z" fill="#68E1FD"/>
<path d="M233.989 127.209L140.791 70.3126C139.774 69.7241 138.519 69.7345 137.512 70.3397C136.506 70.9448 135.907 72.0494 135.948 73.2241V105.636C135.94 106.829 136.558 107.939 137.575 108.56L230.786 164.264C231.794 164.844 233.036 164.834 234.035 164.238C235.033 163.643 235.633 162.554 235.603 161.391L236.09 131.16C236.132 129.565 235.334 128.065 233.989 127.209V127.209Z" fill="#68E1FD"/>
<path d="M211.673 143.896C215.016 148.577 220.897 149.886 224.791 146.833C228.686 143.78 229.134 137.508 225.79 132.84C222.447 128.171 216.566 126.85 212.672 129.903C208.777 132.955 208.368 139.214 211.673 143.896Z" fill="white"/>
<path d="M202.526 121.425L164.491 98.5043C163.814 98.1871 163.007 98.4377 162.629 99.0827C162.25 99.7276 162.424 100.555 163.03 100.993L201.053 123.913C201.729 124.23 202.536 123.979 202.915 123.335C203.293 122.69 203.119 121.862 202.513 121.425H202.526Z" fill="#F2F2F2"/>
<path d="M200.95 130.749L148.541 99.1585C147.864 98.8413 147.058 99.0918 146.679 99.7368C146.301 100.382 146.475 101.209 147.081 101.647L199.49 133.237C200.166 133.555 200.973 133.304 201.352 132.659C201.73 132.014 201.556 131.187 200.95 130.749V130.749Z" fill="#F2F2F2"/>
<path d="M111.672 124.028C105.649 129.218 101.094 135.901 98.4636 143.408C93.8261 156.235 105.42 177.192 105.42 177.192L123.458 162.891" fill="#FF8F6F"/>
<path d="M109.724 293.602L104.831 290.896L106.112 283.893C106.112 283.893 113.401 284.585 114.042 287.176" fill="#003B94"/>
<path d="M111.518 293.499C112.62 292.82 113.773 292.217 114.913 291.614C117.744 290.062 121.831 288.459 123.573 285.547C124.304 284.342 124.212 282.809 123.342 281.699C120.78 278.595 115.169 283.7 112.299 280.263C111.736 279.583 111.467 268.796 111.467 268.796L100.552 271.746C100.552 271.746 98.707 293.422 98.912 294.756C99.117 296.09 102.871 297.321 102.871 297.321C103.988 297.084 105.055 296.649 106.022 296.039C107.162 295.205 106.124 285.034 107.585 286.458C109.045 287.881 109.686 293.448 109.686 293.448C110.292 293.54 110.907 293.557 111.518 293.499Z" fill="#F47B56"/>
<path d="M130.568 304.081L125.674 301.413L126.955 294.41C126.955 294.41 134.244 295.103 134.885 297.694" fill="#003B94"/>
<path d="M132.412 303.978C133.514 303.298 134.667 302.696 135.807 302.093C138.638 300.541 142.725 298.938 144.467 296.026C145.198 294.821 145.106 293.288 144.237 292.178C141.674 289.074 136.063 294.179 133.194 290.742C132.63 290.062 132.361 279.275 132.361 279.275L121.446 282.225C121.446 282.225 119.589 303.978 119.794 305.261C119.999 306.543 123.752 307.826 123.752 307.826C124.87 307.588 125.937 307.154 126.904 306.543C128.044 305.71 127.006 295.539 128.467 296.962C129.927 298.386 130.568 303.953 130.568 303.953C131.179 304.037 131.799 304.046 132.412 303.978Z" fill="#F47B56"/>
<path d="M95.0047 233.614L91.7892 276.672C91.7892 276.672 96.9135 283.752 114.093 279.814V279.814L114.259 250.788" fill="#3E2928"/>
<path d="M114.849 242.144C114.477 245.85 114.849 286.74 114.849 286.74C114.849 286.74 119.601 295.641 140.291 286.74L139.996 251.994" fill="#3E2928"/>
<path d="M93.4034 247.838C94.8125 248.813 95.2994 243.798 96.7726 244.658C102.132 247.775 107.821 250.287 113.734 252.148H113.862C114.147 252.01 114.475 251.993 114.773 252.102C115.07 252.21 115.31 252.436 115.438 252.725C119.091 253.816 122.809 254.673 126.571 255.29C131.4 256.06 135.397 252.482 140.355 252.238C140.355 233.23 140.445 179.129 132.361 167.586L108.443 159.531C108.328 161.506 96.8366 174.845 97.1185 191.109C97.4388 209.437 95.0559 226.727 94.646 232.46C94.5819 233.435 93.4546 246.8 93.4034 247.838Z" fill="#3E2928"/>
<path d="M134.564 145.73L132.361 167.534C132.361 167.534 114.516 168.253 106.829 162.943V144.447" fill="#FF8F6F"/>
<path d="M157.252 131.378L155.433 133.866C156.403 131.842 157.259 129.765 157.995 127.645C158.508 126.196 156.189 125.619 155.677 127.068L155.408 127.812C155.63 127.042 155.839 126.269 156.035 125.49C156.195 124.849 155.805 124.2 155.164 124.041C154.524 123.882 153.876 124.272 153.717 124.913C153.214 126.926 152.611 128.912 151.91 130.865C152.302 129.131 152.584 127.375 152.756 125.606C152.91 124.08 150.514 124.144 150.373 125.606C150.174 127.619 149.814 129.614 149.297 131.57C149.297 130.886 149.233 130.202 149.105 129.518C149.069 129.173 148.887 128.86 148.605 128.658C148.541 128.389 148.464 128.133 148.375 127.863C148.187 127.309 147.629 126.97 147.052 127.058C146.474 127.147 146.044 127.638 146.03 128.222L145.876 137.201C145.443 138.132 144.877 138.996 144.198 139.766C145.351 140.564 146.463 141.42 147.529 142.331C148.48 143.136 149.387 143.993 150.245 144.896C151.014 143.939 151.752 142.964 152.461 141.972C152.549 141.897 152.627 141.811 152.692 141.715C154.827 138.552 157.03 135.439 159.302 132.378C160.25 131.326 158.162 130.159 157.252 131.378Z" fill="#FFB5A9"/>
<path d="M123.24 125.85C123.24 125.85 131.669 128.12 135.09 133.545C137.232 137.3 139.119 141.195 140.739 145.204L146.965 135.52C146.965 135.52 154.524 137.842 157.521 141.562C157.521 141.562 148.554 161.185 140.739 162.866C132.925 164.546 124.623 151.348 124.623 151.348C124.623 151.348 122.907 156.863 123.24 150.976" fill="#FF8F6F"/>
<path d="M128.595 146.82C126.144 144.824 124.295 142.187 123.253 139.202C122.24 135.751 123.509 132.724 124.687 129.518C125.963 126.339 126.708 122.972 126.891 119.552C126.993 116.192 126.609 112.831 126.378 109.483C126.345 109.34 126.345 109.191 126.378 109.047C125.251 105.264 122.945 102.057 118.397 101.672C106.624 100.672 105.958 113.729 106.048 119.039C106.137 124.349 106.701 127.94 102.794 130.159C98.8864 132.378 96.068 138.201 99.7959 142.908C103.524 147.615 100.18 145.897 97.695 150.078C95.2097 154.259 95.8502 159.48 100.949 161.365C106.048 163.25 129.748 159.71 131.925 157.517C132.698 156.634 133.098 155.484 133.04 154.311C132.508 151.359 130.93 148.699 128.595 146.82V146.82Z" fill="#007F68"/>
<path fill-rule="evenodd" clip-rule="evenodd" d="M143.506 48.8802C143.325 45.3837 142.171 42.0075 140.176 39.1324C138.4 36.2591 135.777 34.0092 132.668 32.6937C131.076 31.9826 129.277 31.8911 127.621 32.4372C126.041 32.9971 124.738 34.1457 123.983 35.6437C123.073 37.4293 122.666 39.4288 122.804 41.4283C122.915 43.8067 123.471 46.1431 124.444 48.3159C125.415 50.5909 126.758 52.6887 128.415 54.5237C129.814 56.1552 131.567 57.445 133.54 58.2946C134.234 58.572 134.962 58.7575 135.705 58.8461C136.27 58.922 136.843 58.922 137.408 58.8461C137.85 58.7848 138.281 58.664 138.69 58.4869C138.949 58.3846 139.202 58.2646 139.445 58.1278L139.702 57.9483L138.152 55.0624L137.639 55.3446C137.118 55.5853 136.546 55.6912 135.974 55.6524C135.095 55.6617 134.223 55.4915 133.412 55.1522C131.08 54.082 129.16 52.2811 127.941 50.0217C126.411 47.7343 125.525 45.0755 125.379 42.3261C125.133 40.1398 125.891 37.9598 127.442 36.4004C128.911 35.1008 131.023 34.8313 132.771 35.7206C135.124 36.6998 137.11 38.3961 138.446 40.5689C139.933 42.7045 140.79 45.2157 140.919 47.8156C141.013 50.4407 140.44 51.5096 139.202 51.0222C138.761 50.831 138.392 50.5027 138.152 50.0859C137.868 49.6544 137.708 49.1529 137.69 48.6365L137.434 41.4283L134.872 40.4278V41.5693L134.641 41.1589C134.378 40.7834 134.068 40.4429 133.719 40.1456C133.309 39.7737 132.836 39.4783 132.323 39.2735C131.286 38.7631 130.041 38.958 129.21 39.7609C128.265 40.8045 127.828 42.2129 128.018 43.6087C128.072 45.3326 128.585 47.0108 129.504 48.4698C130.267 49.8125 131.445 50.8704 132.861 51.4839C133.454 51.7529 134.116 51.8335 134.757 51.7148C135.14 51.6585 135.502 51.5038 135.807 51.2659C135.927 51.134 136.031 50.9875 136.115 50.8298L136.422 51.4326C136.718 51.951 137.089 52.4222 137.524 52.8306C138.008 53.3332 138.593 53.7267 139.24 53.985C140.301 54.5503 141.609 54.3232 142.418 53.4335C143.341 52.1074 143.73 50.4811 143.506 48.8802ZM135.051 46.3535C135.136 47.031 134.946 47.7142 134.526 48.2517C134.133 48.6423 133.533 48.7355 133.04 48.4826C132.354 48.1849 131.782 47.6717 131.413 47.0204C130.964 46.3036 130.712 45.4806 130.683 44.6348C130.593 43.9624 130.799 43.2843 131.246 42.775C131.678 42.3849 132.306 42.3031 132.822 42.5698C133.48 42.8561 134.025 43.3521 134.372 43.9806C134.797 44.7006 135.031 45.5175 135.051 46.3535Z" fill="#F47B56"/>
<path fill-rule="evenodd" clip-rule="evenodd" d="M294.764 187.761C294.586 184.264 293.432 180.887 291.433 178.013C289.721 175.108 287.152 172.805 284.079 171.421C282.482 170.715 280.68 170.623 279.019 171.164C277.44 171.732 276.138 172.884 275.381 174.383C274.471 176.164 274.063 178.16 274.202 180.155C274.312 182.534 274.869 184.87 275.842 187.043C276.813 189.322 278.155 191.424 279.813 193.263C281.214 194.89 282.966 196.176 284.938 197.022C285.628 197.303 286.351 197.492 287.09 197.586C287.66 197.661 288.237 197.661 288.807 197.586C289.246 197.517 289.676 197.397 290.088 197.227C290.348 197.124 290.6 197.004 290.844 196.868L291.1 196.688L289.55 193.802L289.037 194.084C288.515 194.32 287.944 194.426 287.372 194.392C286.492 194.392 285.622 194.217 284.81 193.879C282.482 192.861 280.542 191.121 279.275 188.915C277.743 186.629 276.857 183.97 276.713 181.22C276.441 179.029 277.182 176.833 278.725 175.256C280.198 173.964 282.308 173.7 284.054 174.589C286.4 175.568 288.38 177.259 289.716 179.424C291.202 181.565 292.059 184.08 292.189 186.684C292.266 189.313 291.74 190.378 290.459 189.89C290.018 189.699 289.65 189.371 289.409 188.954C289.129 188.52 288.97 188.02 288.948 187.505L288.691 180.296L286.129 179.309V180.45L285.886 180.04C285.622 179.661 285.312 179.316 284.963 179.014C284.554 178.641 284.081 178.346 283.567 178.142C282.534 177.633 281.294 177.828 280.467 178.629C279.515 179.669 279.078 181.08 279.275 182.477C279.329 184.207 279.847 185.89 280.774 187.351C281.535 188.698 282.713 189.761 284.131 190.378C284.72 190.647 285.379 190.723 286.014 190.596C286.398 190.542 286.76 190.387 287.064 190.147C287.182 190.013 287.285 189.867 287.372 189.711L287.679 190.313C287.978 190.83 288.349 191.301 288.781 191.712C289.268 192.211 289.852 192.604 290.498 192.866C291.559 193.426 292.864 193.2 293.675 192.314C294.598 190.988 294.987 189.362 294.764 187.761ZM286.321 185.234C286.402 185.914 286.208 186.597 285.783 187.133C285.387 187.519 284.788 187.607 284.297 187.351C283.61 187.048 283.039 186.531 282.67 185.876C282.221 185.163 281.969 184.345 281.94 183.503C281.851 182.828 282.061 182.148 282.517 181.643C282.951 181.257 283.578 181.181 284.092 181.451C284.748 181.736 285.289 182.233 285.63 182.862C286.061 183.58 286.299 184.397 286.321 185.234Z" fill="#F47B56"/>
<g style="mix-blend-mode:multiply" opacity="0.25">
<path d="M36.139 232.704L-7.22557 208.001L-50.5774 232.755C-50.5774 232.755 -26.4546 247.838 -4.86838 260.511C8.83919 250.814 21.0223 239.72 36.139 232.704Z" fill="url(#paint4_linear_0_215)"/>
</g>
</g>
<defs>
<filter id="filter0_d_0_215" x="-30" y="-70" width="980" height="589" filterUnits="userSpaceOnUse" color-interpolation-filters="sRGB">
<feFlood flood-opacity="0" result="BackgroundImageFix"/>
<feColorMatrix in="SourceAlpha" type="matrix" values="0 0 0 0 0 0 0 0 0 0 0 0 0 0 0 0 0 0 127 0" result="hardAlpha"/>
<feMorphology radius="20" operator="erode" in="SourceAlpha" result="effect1_dropShadow_0_215"/>
<feOffset dy="50"/>
<feGaussianBlur stdDeviation="25"/>
<feColorMatrix type="matrix" values="0 0 0 0 0.209139 0 0 0 0 0.0691446 0 0 0 0 0.478091 0 0 0 0.497159 0"/>
<feBlend mode="normal" in2="BackgroundImageFix" result="effect1_dropShadow_0_215"/>
<feBlend mode="normal" in="SourceGraphic" in2="effect1_dropShadow_0_215" result="shape"/>
</filter>
<linearGradient id="paint0_linear_0_215" x1="162.715" y1="185.543" x2="151.685" y2="218.24" gradientUnits="userSpaceOnUse">
<stop stop-color="#78B46A"/>
<stop offset="0.03" stop-color="#7F3500"/>
<stop offset="1" stop-color="white"/>
</linearGradient>
<linearGradient id="paint1_linear_0_215" x1="90.5363" y1="252.477" x2="71.9807" y2="310.838" gradientUnits="userSpaceOnUse">
<stop stop-color="#78B46A"/>
<stop offset="0.03" stop-color="#7F3500"/>
<stop offset="1" stop-color="white"/>
</linearGradient>
<linearGradient id="paint2_linear_0_215" x1="44.7001" y1="130.002" x2="27.5362" y2="169.625" gradientUnits="userSpaceOnUse">
<stop stop-color="#78B46A"/>
<stop offset="0.03" stop-color="#7F3500"/>
<stop offset="1" stop-color="white"/>
</linearGradient>
<linearGradient id="paint3_linear_0_215" x1="285.656" y1="165.452" x2="278.951" y2="148.459" gradientUnits="userSpaceOnUse">
<stop stop-color="white" stop-opacity="0.01"/>
<stop offset="0.99" stop-color="#DC841E"/>
</linearGradient>
<linearGradient id="paint4_linear_0_215" x1="-20.445" y1="188.349" x2="-39.9671" y2="246.801" gradientUnits="userSpaceOnUse">
<stop stop-color="#78B46A"/>
<stop offset="0.03" stop-color="#7F3500"/>
<stop offset="1" stop-color="white"/>
</linearGradient>
</defs>
</svg>
